<svg xmlns="http://www.w3.org/2000/svg" xmlns:xlink="http://www.w3.org/1999/xlink" viewBox="0 0 200 60" xml:space="preserve"><path fill="#FFF" d="M.5.5h199v59H.5z"/><path fill="#DADCE0" d="M199 1v58H1V1h198m1-1H0v60h200V0z"/><g fill="#5F6368"><path d="M69.689 42.616c-1.578 0-2.901-.534-3.97-1.603-1.069-1.068-1.603-2.401-1.603-4 0-1.598.534-2.931 1.603-4 1.068-1.068 2.392-1.603 3.97-1.603 1.618 0 2.931.584 3.94 1.753l-.959.929c-.729-.909-1.723-1.363-2.981-1.363-1.168 0-2.155.395-2.958 1.183-.804.789-1.206 1.823-1.206 3.101 0 1.279.402 2.312 1.206 3.101.804.789 1.79 1.183 2.958 1.183 1.288 0 2.387-.519 3.296-1.558l.959.959a5.22 5.22 0 0 1-1.843 1.4 5.63 5.63 0 0 1-2.412.518zM76.55 31.651v3.386l-.06 1.018h.06c.2-.35.514-.646.944-.891a2.735 2.735 0 0 1 1.378-.367c.909 0 1.603.28 2.082.839.479.559.719 1.309.719 2.247v4.494h-1.378v-4.284c0-1.358-.604-2.037-1.813-2.037-.569 0-1.034.227-1.393.682-.36.455-.539.981-.539 1.58v4.06h-1.378V31.651h1.378zM84.669 42.376h-1.378v-7.34h1.318v1.198h.06c.14-.399.427-.729.861-.989.434-.259.856-.389 1.266-.389.409 0 .754.06 1.034.18l-.524 1.288c-.18-.07-.424-.105-.734-.105-.499 0-.941.197-1.326.592-.384.395-.577.911-.577 1.55v4.015zM88.923 35.912c.709-.744 1.613-1.116 2.711-1.116s2.002.372 2.711 1.116c.709.744 1.064 1.676 1.064 2.794 0 1.119-.355 2.05-1.064 2.794-.709.744-1.613 1.116-2.711 1.116s-2.002-.372-2.711-1.116c-.709-.744-1.064-1.675-1.064-2.794.001-1.118.355-2.05 1.064-2.794zm1.026 4.719c.474.484 1.036.727 1.685.727s1.211-.242 1.685-.727c.474-.484.711-1.126.711-1.925 0-.799-.237-1.44-.711-1.925-.474-.484-1.036-.727-1.685-.727s-1.211.242-1.685.727c-.474.484-.711 1.126-.711 1.925 0 .799.237 1.441.711 1.925zM96.518 42.376v-7.34h1.318v1.018h.06c.21-.35.532-.646.966-.891.435-.245.866-.367 1.296-.367 1.138 0 1.912.469 2.322 1.408.599-.939 1.453-1.408 2.562-1.408.869 0 1.523.277 1.962.831.44.554.659 1.306.659 2.255v4.494h-1.378v-4.284c0-.739-.135-1.263-.404-1.573-.27-.31-.68-.465-1.228-.465-.539 0-.986.23-1.341.689a2.503 2.503 0 0 0-.532 1.573v4.06h-1.378v-4.284c0-.739-.135-1.263-.404-1.573-.269-.31-.679-.465-1.228-.465-.539 0-.986.23-1.341.689a2.503 2.503 0 0 0-.532 1.573v4.06h-1.379zM112.606 42.616c-1.109 0-2.01-.369-2.704-1.109-.694-.739-1.041-1.672-1.041-2.801 0-1.068.337-1.987 1.011-2.756s1.536-1.153 2.584-1.153c1.088 0 1.96.355 2.614 1.064s.981 1.658.981 2.846l-.015.255h-5.797c.04.739.287 1.323.741 1.752.454.43.986.644 1.595.644.989 0 1.658-.419 2.007-1.258l1.228.509c-.24.569-.634 1.046-1.183 1.431-.548.384-1.222.576-2.021.576zm1.977-4.794c-.03-.419-.222-.819-.577-1.198-.354-.38-.881-.569-1.58-.569-.509 0-.951.16-1.326.48-.374.319-.632.749-.771 1.288h4.254zM132.739 31.651l-2.861 10.726h-1.408l-2.307-7.07h-.06l-2.307 7.07h-1.408l-2.981-10.726h1.438l2.262 8.434h.06l2.322-6.996h1.288l2.322 6.996h.06l2.142-8.434h1.438zM136.319 42.616c-1.109 0-2.01-.369-2.704-1.109-.694-.739-1.041-1.672-1.041-2.801 0-1.068.337-1.987 1.011-2.756s1.536-1.153 2.584-1.153c1.088 0 1.96.355 2.614 1.064s.981 1.658.981 2.846l-.015.255h-5.797c.04.739.287 1.323.741 1.752.454.43.986.644 1.595.644.989 0 1.658-.419 2.007-1.258l1.228.509c-.24.569-.634 1.046-1.183 1.431-.548.384-1.222.576-2.021.576zm1.977-4.794c-.03-.419-.222-.819-.577-1.198-.354-.38-.881-.569-1.58-.569-.509 0-.951.16-1.326.48-.374.319-.632.749-.771 1.288h4.254zM144.902 42.616c-.559 0-1.061-.12-1.506-.359-.444-.24-.777-.539-.996-.899h-.06v1.018h-1.318V31.651h1.378v3.386l-.06 1.018h.06c.22-.359.552-.659.996-.899.444-.24.946-.359 1.506-.359.949 0 1.768.374 2.456 1.123.689.749 1.034 1.678 1.034 2.786 0 1.109-.345 2.037-1.034 2.787-.688.748-1.507 1.123-2.456 1.123zm-.224-1.258c.639 0 1.188-.242 1.648-.727.459-.484.689-1.126.689-1.925 0-.799-.23-1.44-.689-1.925-.459-.484-1.009-.727-1.648-.727-.649 0-1.201.24-1.655.719-.455.479-.682 1.123-.682 1.932s.227 1.453.682 1.933c.454.48 1.005.72 1.655.72zM155.763 42.616c-.779 0-1.54-.255-2.284-.764-.744-.509-1.231-1.223-1.46-2.142l1.258-.509c.15.589.457 1.086.921 1.491.465.404.986.606 1.565.606.599 0 1.111-.157 1.536-.472.424-.315.637-.742.637-1.281 0-.599-.212-1.061-.637-1.385-.425-.325-1.096-.627-2.015-.907-.949-.299-1.668-.686-2.157-1.161-.489-.474-.734-1.081-.734-1.82 0-.769.304-1.438.914-2.007.609-.569 1.403-.854 2.382-.854.909 0 1.648.227 2.217.682.569.455.939.951 1.109 1.491l-1.258.524c-.09-.34-.312-.654-.667-.944-.354-.289-.811-.435-1.37-.435-.529 0-.981.147-1.356.442-.374.295-.562.661-.562 1.101 0 .399.172.737.517 1.011.345.275.851.522 1.521.741.529.17.971.335 1.326.495.354.16.714.372 1.079.637s.639.594.824.989c.185.395.277.851.277 1.37 0 .52-.108.984-.322 1.393-.215.41-.499.734-.854.974s-.737.422-1.146.547a4.357 4.357 0 0 1-1.261.187zM163.582 42.496c-.769 0-1.356-.204-1.76-.614-.404-.41-.607-.989-.607-1.738v-3.85h-1.288v-1.258h1.288v-2.247h1.378v2.247h1.798v1.258h-1.798v3.745c0 .799.33 1.199.989 1.199.249 0 .459-.04.629-.12l.48 1.184c-.3.129-.67.194-1.109.194zM166.279 35.912c.709-.744 1.613-1.116 2.711-1.116 1.098 0 2.002.372 2.711 1.116.709.744 1.064 1.676 1.064 2.794 0 1.119-.354 2.05-1.064 2.794-.709.744-1.613 1.116-2.711 1.116-1.099 0-2.003-.372-2.711-1.116-.709-.744-1.064-1.675-1.064-2.794 0-1.118.354-2.05 1.064-2.794zm1.026 4.719c.474.484 1.036.727 1.685.727s1.211-.242 1.685-.727c.474-.484.712-1.126.712-1.925 0-.799-.238-1.44-.712-1.925-.474-.484-1.036-.727-1.685-.727-.65 0-1.211.242-1.685.727-.474.484-.711 1.126-.711 1.925-.001.799.236 1.441.711 1.925zM175.251 42.376h-1.378v-7.34h1.318v1.198h.06c.14-.399.427-.729.862-.989.435-.259.856-.389 1.266-.389.409 0 .754.06 1.033.18l-.524 1.288c-.18-.07-.425-.105-.734-.105-.499 0-.941.197-1.326.592-.385.395-.577.911-.577 1.55v4.015zM182.187 42.616c-1.109 0-2.01-.369-2.704-1.109-.694-.739-1.041-1.672-1.041-2.801 0-1.068.337-1.987 1.011-2.756s1.536-1.153 2.584-1.153c1.088 0 1.96.355 2.614 1.064s.981 1.658.981 2.846l-.015.255h-5.797c.04.739.287 1.323.741 1.752.454.43.986.644 1.595.644.989 0 1.658-.419 2.007-1.258l1.228.509c-.24.569-.634 1.046-1.183 1.431-.549.384-1.223.576-2.021.576zm1.977-4.794c-.03-.419-.222-.819-.577-1.198-.354-.38-.881-.569-1.58-.569-.509 0-.951.16-1.326.48-.374.319-.632.749-.771 1.288h4.254zM64.913 25.724l3.061-8.117h1.179l3.061 8.117h-1.156l-.782-2.199h-3.412l-.794 2.199h-1.157zm2.302-3.174h2.698l-1.326-3.662h-.045l-1.327 3.662zM74.073 25.724l-2.245-5.555h1.134l1.632 4.308h.023l1.655-4.308h1.111l-2.267 5.555h-1.043zM79.707 25.905c-.589 0-1.083-.17-1.479-.51-.397-.34-.595-.79-.595-1.349 0-.605.234-1.079.703-1.423.469-.344 1.047-.516 1.734-.516.612 0 1.115.113 1.508.34v-.159c0-.408-.14-.735-.419-.981-.28-.246-.624-.368-1.032-.368-.302 0-.576.072-.822.215-.246.144-.414.34-.504.589l-.952-.408c.128-.333.382-.64.76-.924.378-.283.877-.425 1.496-.425.71 0 1.3.208 1.768.623.469.416.703 1.001.703 1.757v3.355h-.998v-.771h-.045c-.417.638-1.025.955-1.826.955zm.17-.952c.431 0 .822-.161 1.173-.482.351-.321.527-.701.527-1.139-.295-.242-.737-.363-1.326-.363-.506 0-.888.11-1.145.329-.257.219-.385.476-.385.771 0 .272.117.487.351.646.234.159.502.238.805.238zM84.887 18.775c-.144.144-.317.215-.521.215s-.378-.072-.521-.215c-.144-.144-.215-.317-.215-.521s.072-.378.215-.521c.144-.144.317-.215.521-.215s.378.072.521.215c.143.144.215.317.215.521s-.071.377-.215.521zm0 6.949h-1.043v-5.555h1.043v5.555zM87.29 25.724h-1.043v-8.117h1.043v8.117zM90.261 25.905c-.589 0-1.083-.17-1.479-.51-.397-.34-.595-.79-.595-1.349 0-.605.234-1.079.703-1.423.469-.344 1.047-.516 1.734-.516.612 0 1.115.113 1.508.34v-.159c0-.408-.14-.735-.419-.981-.28-.246-.623-.368-1.032-.368-.302 0-.576.072-.822.215-.246.144-.414.34-.504.589l-.952-.408c.128-.333.382-.64.76-.924.378-.283.877-.425 1.496-.425.71 0 1.3.208 1.768.623.469.416.703 1.001.703 1.757v3.355h-.998v-.771h-.045c-.417.638-1.026.955-1.826.955zm.17-.952c.431 0 .822-.161 1.173-.482.351-.321.527-.701.527-1.139-.295-.242-.737-.363-1.326-.363-.506 0-.888.11-1.145.329-.257.219-.385.476-.385.771 0 .272.117.487.351.646.234.159.502.238.805.238zM97.243 25.905c-.423 0-.803-.091-1.139-.272-.336-.181-.588-.408-.754-.68h-.045v.771h-.998v-8.117h1.043v2.562l-.045.771h.045c.166-.272.418-.499.754-.68a2.364 2.364 0 0 1 1.139-.272c.718 0 1.338.283 1.859.85.522.567.782 1.27.782 2.109s-.26 1.542-.782 2.109c-.521.566-1.141.849-1.859.849zm-.17-.952c.484 0 .899-.183 1.247-.55.348-.367.521-.852.521-1.457 0-.605-.174-1.09-.521-1.457-.348-.367-.763-.55-1.247-.55-.491 0-.909.181-1.253.544-.344.363-.516.85-.516 1.462s.172 1.1.516 1.462c.345.365.762.546 1.253.546zM101.823 25.724h-1.043v-8.117h1.043v8.117zM105.553 25.905c-.839 0-1.521-.28-2.046-.839-.525-.559-.788-1.266-.788-2.12 0-.809.255-1.504.765-2.086s1.162-.873 1.955-.873c.824 0 1.483.268 1.978.805s.743 1.255.743 2.154l-.011.193h-4.387c.03.559.217 1.001.561 1.326a1.7 1.7 0 0 0 1.207.487c.748 0 1.255-.317 1.519-.952l.93.385c-.181.431-.48.792-.896 1.083-.415.292-.926.437-1.53.437zm1.496-3.627c-.023-.317-.168-.62-.436-.907-.268-.287-.667-.431-1.196-.431-.385 0-.72.121-1.003.363-.283.242-.478.567-.584.975h3.219zM112.74 18.775c-.144.144-.317.215-.521.215s-.378-.072-.521-.215c-.144-.144-.215-.317-.215-.521s.072-.378.215-.521c.144-.144.317-.215.521-.215s.378.072.521.215c.144.144.215.317.215.521s-.072.377-.215.521zm0 6.949h-1.043v-5.555h1.043v5.555zM115.097 20.169v.771h.045c.151-.264.389-.489.714-.674a2.076 2.076 0 0 1 1.043-.278c.688 0 1.213.212 1.576.635.363.423.544.99.544 1.7v3.401h-1.043v-3.242c0-1.028-.457-1.542-1.372-1.542-.431 0-.782.172-1.054.516a1.874 1.874 0 0 0-.408 1.196v3.072H114.1v-5.555h.997zM125.14 25.814c-.582 0-1.026-.155-1.332-.465-.306-.31-.459-.748-.459-1.315v-2.913h-.975v-.952h.975v-1.7h1.043v1.7h1.36v.952h-1.36v2.834c0 .605.249.907.748.907.189 0 .348-.03.476-.091l.363.896c-.227.098-.506.147-.839.147zM127.849 17.607v2.562l-.045.771h.045c.151-.264.389-.489.714-.674a2.076 2.076 0 0 1 1.043-.278c.688 0 1.213.212 1.576.635.363.423.544.99.544 1.7v3.401h-1.043v-3.242c0-1.028-.457-1.542-1.372-1.542-.431 0-.782.172-1.054.516a1.874 1.874 0 0 0-.408 1.196v3.072h-1.043v-8.117h1.043zM135.467 25.905c-.839 0-1.521-.28-2.046-.839-.525-.559-.788-1.266-.788-2.12 0-.809.255-1.504.765-2.086s1.162-.873 1.955-.873c.824 0 1.483.268 1.978.805.495.537.743 1.255.743 2.154l-.011.193h-4.387c.03.559.217 1.001.561 1.326a1.7 1.7 0 0 0 1.207.487c.748 0 1.255-.317 1.519-.952l.93.385c-.181.431-.48.792-.896 1.083-.415.292-.925.437-1.53.437zm1.497-3.627c-.023-.317-.168-.62-.436-.907-.268-.287-.667-.431-1.196-.431-.385 0-.72.121-1.003.363-.283.242-.478.567-.584.975h3.219z"/></g><defs><path id="a" d="M9.269 10.799v35.493a3.051 3.051 0 0 0 3.042 3.042h38.535a3.051 3.051 0 0 0 3.042-3.042V10.799H9.269zm27.38 8.112h-10.14a2.027 2.027 0 1 1 0-4.056H36.65a2.027 2.027 0 1 1-.001 4.056z"/></defs><clipPath id="b"><use xlink:href="#a" overflow="visible"/></clipPath><path clip-path="url(#b)" fill="#EEE" d="M9.269 10.799h44.62v38.535H9.269V10.799z"/><defs><path id="c" d="M9.269 10.799v35.493a3.051 3.051 0 0 0 3.042 3.042h38.535a3.051 3.051 0 0 0 3.042-3.042V10.799H9.269zm27.38 8.112h-10.14a2.027 2.027 0 1 1 0-4.056H36.65a2.027 2.027 0 1 1-.001 4.056z"/></defs><clipPath id="d"><use xlink:href="#c" overflow="visible"/></clipPath><path clip-path="url(#d)" fill="#FFF" d="M36.649 14.855h-10.14a2.027 2.027 0 1 0 0 4.056H36.65a2.027 2.027 0 1 0-.001-4.056z"/><defs><path id="e" d="M9.269 10.799v35.493a3.051 3.051 0 0 0 3.042 3.042h38.535a3.051 3.051 0 0 0 3.042-3.042V10.799H9.269zm27.38 8.112h-10.14a2.027 2.027 0 1 1 0-4.056H36.65a2.027 2.027 0 1 1-.001 4.056z"/></defs><clipPath id="f"><use xlink:href="#e" overflow="visible"/></clipPath><g clip-path="url(#f)"><defs><circle id="g" cx="31.579" cy="46.291" r="19.268"/></defs><defs><circle id="i" cx="31.579" cy="46.291" r="19.268"/></defs><defs><circle id="k" cx="31.579" cy="46.291" r="19.268"/></defs><defs><circle id="m" cx="31.579" cy="46.291" r="19.268"/></defs><clipPath id="h"><use xlink:href="#g" overflow="visible"/></clipPath><clipPath id="j" clip-path="url(#h)"><use xlink:href="#i" overflow="visible"/></clipPath><clipPath id="l" clip-path="url(#j)"><use xlink:href="#k" overflow="visible"/></clipPath><clipPath id="n" clip-path="url(#l)"><use xlink:href="#m" overflow="visible"/></clipPath><path clip-path="url(#n)" fill="#DB4437" d="M15.371 27.024V50.67h8.622l7.585-13.137h19.268V27.024H15.371zm0 0V50.67h8.622l7.585-13.137h19.268V27.024H15.371z"/><path clip-path="url(#n)" fill="#0F9D58" d="M12.311 65.559h18.34l8.513-8.513v-6.374l-15.17-.002-11.683-20.036v34.925zm0 0h18.34l8.513-8.513v-6.374l-15.17-.002-11.683-20.036v34.925z"/><path clip-path="url(#n)" fill="#FFCD40" d="m31.579 37.532 7.585 13.137-8.511 14.889h20.193V37.532H31.579zm0 0 7.585 13.137-8.511 14.889h20.193V37.532H31.579z"/><g clip-path="url(#n)"><circle fill="#F1F1F1" cx="31.579" cy="46.291" r="8.759"/><circle fill="#4285F4" cx="31.579" cy="46.291" r="7.007"/></g><defs><path id="o" d="M9.269 10.799v35.493a3.051 3.051 0 0 0 3.042 3.042h38.535a3.051 3.051 0 0 0 3.042-3.042V10.799H9.269zm27.38 8.112h-10.14a2.027 2.027 0 1 1 0-4.056H36.65a2.027 2.027 0 1 1-.001 4.056z"/></defs><clipPath id="p"><use xlink:href="#o" overflow="visible"/></clipPath><path clip-path="url(#p)" fill="#212121" fill-opacity=".05" d="M9.269 10.799h44.62v19.268H9.269V10.799z"/><path fill="#212121" fill-opacity=".02" d="M9.269 29.813h44.62v.254H9.269v-.254z"/><path fill="#FFF" fill-opacity=".05" d="M9.269 30.066h44.62v.254H9.269v-.254z"/><path fill="#212121" fill-opacity=".02" d="M36.649 18.911h-10.14a2.026 2.026 0 0 1-2.021-1.901 1.083 1.083 0 0 0-.008.127c0 1.121.908 2.028 2.028 2.028h10.141a2.027 2.027 0 0 0 2.028-2.028c0-.043-.003-.084-.008-.127a2.023 2.023 0 0 1-2.02 1.901zm-27.38-8.112v.254h44.62v-.254H9.269z"/><path fill="#231F20" fill-opacity=".1" d="M26.509 14.855H36.65c1.077 0 1.957.842 2.021 1.901.003-.043.008-.084.008-.127a2.027 2.027 0 0 0-2.028-2.028H26.509a2.027 2.027 0 0 0-2.028 2.028c0 .043.003.084.008.127a2.023 2.023 0 0 1 2.02-1.901zM50.847 49.08H12.311a3.051 3.051 0 0 1-3.042-3.042v.254a3.051 3.051 0 0 0 3.042 3.042h38.535a3.051 3.051 0 0 0 3.042-3.042v-.254a3.05 3.05 0 0 1-3.041 3.042z"/><radialGradient id="q" cx="477.572" cy="-112.529" r="230.801" gradientTransform="matrix(.25 0 0 -.25 -110.25 -17.5)" gradientUnits="userSpaceOnUse"><stop offset="0" style="stop-color:#fff;stop-opacity:.1"/><stop offset="1" style="stop-color:#fff;stop-opacity:0"/></radialGradient><path fill="url(#q)" d="M9.269 10.799v35.493a3.051 3.051 0 0 0 3.042 3.042h38.535a3.051 3.051 0 0 0 3.042-3.042V10.799H9.269zm27.38 8.112h-10.14a2.027 2.027 0 1 1 0-4.056H36.65a2.027 2.027 0 1 1-.001 4.056z"/><path fill="none" d="M7.241 5.728h48.676v48.676H7.241V5.728z"/></g></svg>