<?xml version="1.0" encoding="UTF-8" standalone="no"?>
<svg
   width="168.75"
   height="60"
   viewBox="0 0 168.75 60"
   fill="none"
   version="1.1"
   id="svg14"
   sodipodi:docname="get-it-from-microsoft-light.svg"
   inkscape:version="1.3 (0e150ed6c4, 2023-07-21)"
   xmlns:inkscape="http://www.inkscape.org/namespaces/inkscape"
   xmlns:sodipodi="http://sodipodi.sourceforge.net/DTD/sodipodi-0.dtd"
   xmlns="http://www.w3.org/2000/svg"
   xmlns:svg="http://www.w3.org/2000/svg">
  <sodipodi:namedview
     id="namedview14"
     pagecolor="#505050"
     bordercolor="#eeeeee"
     borderopacity="1"
     inkscape:showpageshadow="0"
     inkscape:pageopacity="0"
     inkscape:pagecheckerboard="0"
     inkscape:deskcolor="#d1d1d1"
     showgrid="false"
     inkscape:zoom="4.965461"
     inkscape:cx="106.63663"
     inkscape:cy="44.809536"
     inkscape:window-width="1920"
     inkscape:window-height="1015"
     inkscape:window-x="0"
     inkscape:window-y="0"
     inkscape:window-maximized="1"
     inkscape:current-layer="svg14">
    <inkscape:grid
       id="grid14"
       units="px"
       originx="0"
       originy="0"
       spacingx="1"
       spacingy="1"
       empcolor="#3f3fff"
       empopacity="0.25098039"
       color="#3f3fff"
       opacity="0.1254902"
       empspacing="5"
       dotted="false"
       gridanglex="30"
       gridanglez="30"
       visible="false" />
  </sodipodi:namedview>
  <path
     d="M 168.25,0.5 H 0.5 v 59 h 167.75 z"
     style="clip-rule:evenodd;fill:#ffffff;fill-opacity:1;fill-rule:evenodd;stroke:#dadce0;stroke-width:1;stroke-linecap:square;stroke-linejoin:miter;stroke-miterlimit:2;stroke-dasharray:none;stroke-opacity:1"
     id="path2-3"
     sodipodi:nodetypes="ccccc" />
  <path
     d="M 29.167312,13.125 H 13.125 v 16.0515 h 16.042312 z"
     fill="#f25022"
     id="path1"
     style="stroke-width:1.875" />
  <path
     d="M 46.875188,13.125 H 30.832875 v 16.0515 h 16.042313 z"
     fill="#7fba00"
     id="path2"
     style="stroke-width:1.875" />
  <path
     d="M 29.167312,30.824062 H 13.125 v 16.051313 h 16.042312 z"
     fill="#00a4ef"
     id="path3"
     style="stroke-width:1.875" />
  <path
     d="M 46.875375,30.824062 H 30.833062 v 16.051313 h 16.042313 z"
     fill="#ffb900"
     id="path4"
     style="stroke-width:1.875" />
  <path
     d="m 63.735375,23.649937 c -0.527438,0.29775 -1.086375,0.522376 -1.677188,0.673876 -0.590812,0.151312 -1.2135,0.227062 -1.867687,0.227062 -1.552875,0 -2.785688,-0.461437 -3.698813,-1.384312 C 55.578562,22.243687 55.122,20.942438 55.122,19.262625 c 0,-1.694269 0.5055,-3.044362 1.516125,-4.050225 1.015687,-1.010738 2.32425,-1.516106 3.925875,-1.516106 0.595687,0 1.142625,0.06103 1.640625,0.183094 0.502875,0.117187 1.010625,0.305174 1.523437,0.563962 l -0.53475,1.076663 c -0.429562,-0.224607 -0.852,-0.385744 -1.267125,-0.483394 -0.414937,-0.09765 -0.8715,-0.146475 -1.369499,-0.146475 -1.176751,0 -2.143688,0.373519 -2.900438,1.120593 -0.751875,0.747075 -1.128,1.801763 -1.128,3.164138 0,1.381687 0.332062,2.426625 0.996187,3.134625 0.669001,0.703125 1.606501,1.054687 2.8125,1.054687 0.395438,0 0.764063,-0.039 1.105875,-0.117187 0.346688,-0.078 0.664125,-0.195188 0.952125,-0.351563 v -2.856375 h -2.285062 v -1.1865 h 3.6255 z m 8.613187,-2.819812 h -5.40525 c 0.02437,0.849562 0.251438,1.503938 0.681188,1.96275 0.42975,0.454125 1.03275,0.681188 1.809,0.681188 0.336937,0 0.681187,-0.05119 1.03275,-0.153751 0.356437,-0.107437 0.712875,-0.280687 1.069312,-0.519937 L 72.129,23.708437 c -0.444375,0.293063 -0.891188,0.507938 -1.340438,0.644625 -0.44925,0.136688 -0.942375,0.205125 -1.479562,0.205125 -1.161938,0 -2.06775,-0.34425 -2.71725,-1.03275 -0.649313,-0.693375 -0.9765,-1.660124 -0.981375,-2.900437 -0.0049,-1.235438 0.322312,-2.229 0.981375,-2.98095 0.664125,-0.756844 1.523438,-1.135256 2.578125,-1.135256 1.005937,0 1.78725,0.32715 2.34375,0.981431 0.556687,0.649425 0.834937,1.555275 0.834937,2.717212 z m -1.311,-1.025438 c -0.0049,-0.707999 -0.175687,-1.257318 -0.512624,-1.647956 -0.332063,-0.390618 -0.791063,-0.585937 -1.377001,-0.585937 -0.576187,0 -1.064437,0.20265 -1.464749,0.607912 -0.395625,0.400388 -0.637313,0.942356 -0.725251,1.625982 z m 7.002001,4.475063 c -0.210001,0.08794 -0.420001,0.151312 -0.629813,0.1905 -0.205125,0.04387 -0.437063,0.06581 -0.695813,0.06581 -0.629999,0 -1.123125,-0.180562 -1.479562,-0.541875 -0.351563,-0.361312 -0.52725,-0.896062 -0.52725,-1.604062 v -4.614244 h -1.311187 v -1.083994 h 1.311187 v -1.757812 l 1.311,-0.417469 v 2.175281 H 77.937 v 1.083994 H 76.018125 V 22.251 c 0,0.434625 0.078,0.747 0.234375,0.9375 0.156187,0.1905 0.390562,0.285563 0.703125,0.285563 0.146438,0 0.288,-0.01706 0.424688,-0.05119 0.136687,-0.03412 0.253874,-0.07575 0.351562,-0.1245 z m 6.423374,-9.213825 c -0.258749,0 -0.473625,-0.08546 -0.644624,-0.25635 C 83.6475,14.638669 83.562,14.431144 83.562,14.187019 c 0,-0.253913 0.0855,-0.463875 0.256313,-0.629888 0.170999,-0.170906 0.385875,-0.25635 0.644624,-0.25635 0.258751,0 0.473626,0.08544 0.644438,0.25635 0.175875,0.166013 0.263625,0.375975 0.263625,0.629888 0,0.244125 -0.08775,0.45165 -0.263625,0.622556 -0.170812,0.170887 -0.385687,0.25635 -0.644438,0.25635 z M 85.100062,24.375 h -1.303687 v -7.683113 h 1.303688 z m 6.386813,-0.09525 c -0.21,0.08794 -0.42,0.151312 -0.63,0.1905 -0.204937,0.04387 -0.436875,0.06581 -0.695813,0.06581 -0.629812,0 -1.122937,-0.180562 -1.479375,-0.541875 -0.351562,-0.361312 -0.527437,-0.896062 -0.527437,-1.604062 v -4.614244 h -1.311 v -1.083994 h 1.311 v -1.757812 l 1.311,-0.417469 v 2.175281 h 1.919062 v 1.083994 H 89.46525 V 22.251 c 0,0.434625 0.07819,0.747 0.234375,0.9375 0.156375,0.1905 0.39075,0.285563 0.703125,0.285563 0.146625,0 0.288187,-0.01706 0.424875,-0.05119 0.136687,-0.03412 0.253875,-0.07575 0.351562,-0.1245 z m 9.455435,-9.968231 c -0.13669,-0.04883 -0.26119,-0.08301 -0.3735,-0.102544 -0.11231,-0.01952 -0.2295,-0.02929 -0.35156,-0.02929 -0.405188,0 -0.708,0.107418 -0.90825,0.322274 -0.195188,0.214838 -0.292875,0.529782 -0.292875,0.944813 v 1.245112 h 1.765125 v 1.083994 H 99.016125 V 24.375 H 97.71975 V 17.775881 H 96.430687 V 16.691887 H 97.71975 V 15.38085 c 0,-0.717769 0.222187,-1.279294 0.666562,-1.684556 0.449063,-0.405281 1.059563,-0.607913 1.830938,-0.607913 0.19537,0 0.3735,0.01464 0.53475,0.04395 0.16106,0.02929 0.32719,0.0708 0.498,0.1245 z m 5.15625,3.49365 c -0.0975,-0.02929 -0.18787,-0.05126 -0.27094,-0.06591 -0.0831,-0.01466 -0.18299,-0.02198 -0.30037,-0.02198 -0.62006,0 -1.10831,0.263663 -1.46475,0.791007 -0.35644,0.522394 -0.53475,1.184081 -0.53475,1.984893 V 24.375 h -1.30369 v -7.683113 h 1.30369 v 1.523438 h 0.0294 c 0.17569,-0.541987 0.44175,-0.952144 0.79819,-1.230469 0.3615,-0.2832 0.77887,-0.4248 1.2525,-0.4248 0.15131,0 0.28087,0.0073 0.38812,0.02198 0.11231,0.01464 0.21488,0.03662 0.30769,0.06593 z m 4.90725,6.753018 c -1.1475,0 -2.06287,-0.359062 -2.7465,-1.076812 -0.67875,-0.722625 -1.01812,-1.679625 -1.01812,-2.871 0,-1.284188 0.35156,-2.287613 1.05469,-3.010275 0.70312,-0.722663 1.66256,-1.086431 2.8785,-1.091306 1.15237,-0.0049 2.05312,0.349125 2.70262,1.062 0.65419,0.708018 0.98138,1.682081 0.98138,2.922393 0,1.23525 -0.34913,2.221688 -1.04738,2.958938 -0.69825,0.73725 -1.63331,1.106062 -2.80519,1.106062 z m 0.0879,-1.084124 c 0.78131,0 1.37944,-0.253875 1.79438,-0.761626 0.41999,-0.512812 0.62999,-1.237875 0.62999,-2.175375 0,-0.94725 -0.21,-1.674749 -0.62999,-2.182575 -0.41982,-0.507806 -1.01794,-0.761718 -1.79438,-0.761718 -0.77644,0 -1.39162,0.266119 -1.84575,0.798337 -0.44925,0.527269 -0.67388,1.254956 -0.67388,2.182706 0,0.903188 0.22707,1.613625 0.68119,2.131313 0.45413,0.512625 1.06688,0.768937 1.83844,0.768938 z M 127.88812,24.375 h -1.311 v -4.416562 c 0,-0.834938 -0.12937,-1.437938 -0.38812,-1.809019 -0.25875,-0.3711 -0.69094,-0.55665 -1.29638,-0.55665 -0.51768,0 -0.957,0.234375 -1.3185,0.703125 -0.35643,0.468731 -0.53456,1.035169 -0.53456,1.699294 V 24.375 h -1.30369 v -4.555688 c 0,-0.742125 -0.144,-1.298812 -0.43218,-1.669893 -0.28313,-0.3711 -0.71044,-0.55665 -1.28175,-0.55665 -0.53213,0 -0.97163,0.222168 -1.31832,0.666506 -0.34181,0.444338 -0.51262,1.025475 -0.51262,1.743225 v 4.3725 h -1.30388 v -7.683113 h 1.30388 v 1.215826 h 0.0292 c 0.27337,-0.463857 0.61031,-0.812982 1.01062,-1.047357 0.4005,-0.234375 0.86194,-0.351562 1.38432,-0.351562 0.52743,0 0.984,0.144037 1.36969,0.432131 0.39056,0.288075 0.66168,0.671381 0.81299,1.1499 0.28313,-0.527344 0.63713,-0.922856 1.06201,-1.186538 0.42975,-0.263662 0.92531,-0.395493 1.48687,-0.395493 0.84469,0 1.47938,0.261225 1.90425,0.783694 0.42488,0.517574 0.63713,1.298812 0.63713,2.343825 z"
     fill="#000000"
     fill-opacity="0.8956"
     id="path5"
     style="stroke-width:1.875;fill:#5f6368;fill-opacity:1" />
  <path
     d="m 77.154187,31.148063 c 0,-0.48075 0.173063,-0.865313 0.519376,-1.192313 0.346125,-0.326812 0.749812,-0.48075 1.230749,-0.48075 0.499875,0 0.923063,0.173063 1.249875,0.500063 0.327,0.326812 0.500063,0.730687 0.500063,1.173 0,0.461625 -0.173063,0.865312 -0.519187,1.173187 -0.346125,0.326812 -0.75,0.48075 -1.250063,0.48075 -0.500062,0 -0.90375,-0.153938 -1.250062,-0.48075 -0.307688,-0.327 -0.48075,-0.711563 -0.480751,-1.173187 z M 80.32725,46.878937 H 77.461875 V 34.66725 h 2.865375 z"
     fill="#000000"
     fill-opacity="0.8956"
     id="path6"
     style="stroke-width:1.875;fill:#5f6368;fill-opacity:1" />
  <path
     d="m 89.057813,44.791313 c 0.422999,0 0.903749,-0.09619 1.423125,-0.288375 0.519187,-0.192375 0.980625,-0.461626 1.422937,-0.788438 v 2.673 c -0.461438,0.26925 -0.980625,0.461625 -1.557563,0.596062 -0.576937,0.134625 -1.230937,0.211688 -1.923187,0.211688 -1.788375,0 -3.249938,-0.576937 -4.384688,-1.711688 C 82.903875,44.349 82.34625,42.887438 82.34625,41.1375 c 0,-1.961625 0.576937,-3.576938 1.730812,-4.846125 1.153688,-1.269188 2.769188,-1.903875 4.884563,-1.903875 0.5385,0 1.077,0.07687 1.634625,0.2115 0.557625,0.134625 0.980812,0.307687 1.307625,0.48075 v 2.750062 c -0.442313,-0.327 -0.90375,-0.576937 -1.365375,-0.75 -0.461438,-0.173062 -0.942188,-0.26925 -1.423125,-0.26925 -1.134563,0 -2.038313,0.365438 -2.749875,1.096125 -0.692438,0.730875 -1.038563,1.730813 -1.038563,2.980875 0,1.23075 0.327,2.19225 1.000125,2.8845 0.672938,0.692438 1.576875,1.01925 2.730751,1.019251 z"
     fill="#000000"
     fill-opacity="0.8956"
     id="path7"
     style="stroke-width:1.875;fill:#5f6368;fill-opacity:1" />
  <path
     d="m 100.07588,34.48125 c 0.23081,0 0.44231,0.01931 0.61537,0.03844 0.17306,0.03844 0.34613,0.07706 0.46163,0.1155 V 37.539 c -0.15394,-0.1155 -0.36544,-0.2115 -0.65382,-0.307688 -0.28856,-0.09619 -0.634685,-0.153937 -1.057685,-0.153937 -0.711562,0 -1.307812,0.288562 -1.788562,0.884625 -0.48075,0.59625 -0.730688,1.5 -0.730688,2.750062 v 6.173063 H 94.05675 v -12.2115 h 2.865375 v 1.923 h 0.03844 c 0.26925,-0.673125 0.653812,-1.192313 1.192312,-1.55775 0.5385,-0.36525 1.173,-0.557625 1.923003,-0.557625 z"
     fill="#000000"
     fill-opacity="0.8956"
     id="path8"
     style="stroke-width:1.875;fill:#5f6368;fill-opacity:1" />
  <path
     d="m 101.30775,40.964438 c 0,-2.019188 0.57694,-3.615375 1.7115,-4.807688 1.13456,-1.173187 2.73075,-1.76925 4.74994,-1.76925 1.90387,0 3.40387,0.576938 4.48087,1.7115 1.07681,1.134563 1.61531,2.673187 1.61531,4.596188 0,1.98075 -0.57693,3.557625 -1.71149,4.730812 -1.13475,1.173 -2.69232,1.749937 -4.65394,1.749937 -1.88457,0 -3.40388,-0.557624 -4.5,-1.673062 -1.13457,-1.096125 -1.69219,-2.615437 -1.69219,-4.538437 z m 3,-0.09619 c 0,1.269187 0.28838,2.25 0.86531,2.923125 0.57694,0.673125 1.40382,0.999938 2.48082,0.999938 1.03837,0 1.84612,-0.326813 2.38462,-0.999938 0.53831,-0.673125 0.82688,-1.673062 0.82688,-3 0,-1.307813 -0.28857,-2.30775 -0.84619,-2.980875 -0.55763,-0.672937 -1.36538,-0.999938 -2.38463,-0.999938 -1.05769,0 -1.86544,0.346125 -2.4615,1.057688 -0.57693,0.711562 -0.86531,1.692375 -0.86531,3 z"
     fill="#000000"
     fill-opacity="0.8956"
     id="path9"
     style="stroke-width:1.875;fill:#5f6368;fill-opacity:1" />
  <path
     d="m 118.13494,37.887937 c 0,0.403875 0.13462,0.730876 0.38456,0.961688 0.26925,0.230625 0.84619,0.519188 1.73081,0.884625 1.15388,0.461437 1.96144,0.980625 2.42306,1.557563 0.46144,0.576937 0.69226,1.269375 0.69226,2.076937 0,1.153875 -0.44232,2.076938 -1.32694,2.769375 -0.88463,0.69225 -2.07694,1.038375 -3.57694,1.038375 -0.49987,0 -1.05769,-0.05775 -1.67306,-0.192375 -0.61538,-0.115312 -1.13456,-0.288375 -1.55775,-0.461437 V 43.69575 c 0.51937,0.365438 1.077,0.653813 1.69237,0.865313 0.59625,0.2115 1.15388,0.327 1.63463,0.327 0.65381,0 1.13456,-0.09619 1.44225,-0.26925 0.30769,-0.173063 0.46162,-0.48075 0.46162,-0.923063 0,-0.403875 -0.15393,-0.730875 -0.48075,-0.999937 -0.327,-0.26925 -0.92306,-0.59625 -1.827,-0.942375 -1.05769,-0.442313 -1.80769,-0.942375 -2.25,-1.5 -0.44231,-0.557813 -0.67312,-1.269188 -0.67312,-2.115375 0,-1.096125 0.44231,-2.000063 1.30781,-2.711625 0.86531,-0.711563 1.99987,-1.057688 3.40387,-1.057688 0.423,0 0.90375,0.03844 1.44225,0.134625 0.5385,0.09619 0.98082,0.2115 1.32694,0.365438 v 2.73075 c -0.38456,-0.249938 -0.82687,-0.461626 -1.32694,-0.653813 -0.50006,-0.173063 -1.01925,-0.26925 -1.5,-0.26925 -0.5385,0 -0.98081,0.115312 -1.26918,0.326812 -0.327,0.211688 -0.48075,0.519376 -0.48075,0.884625 z"
     fill="#000000"
     fill-opacity="0.8956"
     id="path10"
     style="stroke-width:1.875;fill:#5f6368;fill-opacity:1" />
  <path
     d="m 124.63444,40.964438 c 0,-2.019188 0.57693,-3.615375 1.7115,-4.807688 1.13456,-1.173187 2.73075,-1.76925 4.74993,-1.76925 1.90388,0 3.40388,0.576938 4.48088,1.7115 1.07681,1.134563 1.61531,2.673187 1.61531,4.596188 0,1.98075 -0.57694,3.557625 -1.7115,4.730812 -1.13456,1.173 -2.69231,1.749937 -4.65394,1.749937 -1.88456,0 -3.40368,-0.557624 -4.5,-1.673062 -1.13456,-1.096125 -1.69218,-2.615437 -1.69218,-4.538437 z m 2.98068,-0.09619 c 0,1.269187 0.28857,2.25 0.8655,2.923125 0.57694,0.673125 1.40382,0.999938 2.48063,0.999938 1.03856,0 1.84631,-0.326813 2.38462,-0.999938 0.5385,-0.673125 0.82707,-1.673062 0.82707,-3 0,-1.307813 -0.28857,-2.30775 -0.84619,-2.980875 -0.55781,-0.672937 -1.36538,-0.999938 -2.38463,-0.999938 -1.05768,0 -1.86543,0.346125 -2.4615,1.057688 -0.57693,0.711562 -0.8655,1.692375 -0.8655,3 z"
     fill="#000000"
     fill-opacity="0.8956"
     id="path11"
     style="stroke-width:1.875;fill:#5f6368;fill-opacity:1" />
  <path
     d="m 146.67338,37.035563 v 6.269249 c 0,1.307626 0.30768,2.269313 0.90393,2.923126 0.59607,0.653812 1.51913,0.961499 2.73075,0.961499 0.40388,0 0.82688,-0.03844 1.24988,-0.134625 0.42319,-0.09619 0.73087,-0.173062 0.90394,-0.288374 v -2.384625 c -0.17307,0.115312 -0.38457,0.2115 -0.61538,0.288375 -0.23081,0.07687 -0.44231,0.1155 -0.59625,0.1155 -0.57694,0 -1.01925,-0.153938 -1.28831,-0.461626 -0.26925,-0.307687 -0.40388,-0.846187 -0.40388,-1.596187 V 37.016438 H 152.481 V 34.67025 h -2.90381 v -3.615375 l -2.8845,0.884625 v 2.749875 h -4.2885 v -1.480688 c 0,-0.730875 0.15375,-1.2885 0.48075,-1.673062 0.32681,-0.384563 0.78844,-0.557813 1.38469,-0.557813 0.30768,0 0.57675,0.03863 0.82687,0.1155 0.23081,0.07687 0.40388,0.15375 0.49988,0.2115 V 28.824 c -0.21151,-0.07688 -0.44232,-0.115313 -0.71138,-0.15375 -0.26925,-0.03844 -0.57694,-0.05775 -0.92306,-0.05775 -1.30782,0 -2.38463,0.403875 -3.21169,1.23075 -0.82688,0.826875 -1.24988,1.865437 -1.24988,3.153937 v 1.692188 h -2.0385 v 2.346188 h 2.0385 v 9.8655 h 2.90382 v -9.865501 z"
     fill="#000000"
     fill-opacity="0.8956"
     id="path12"
     style="stroke-width:1.875;fill:#5f6368;fill-opacity:1" />
  <path
     d="M 74.692312,29.85 V 46.8885 H 71.73075 V 33.54225 H 71.69231 L 66.403875,46.8885 H 64.44225 L 59.019187,33.54225 H 58.98075 V 46.8885 H 56.25 V 29.85 h 4.23075 l 4.903875,12.634687 H 65.4615 L 70.634625,29.85 Z"
     fill="#000000"
     fill-opacity="0.8956"
     id="path13"
     style="stroke-width:1.875;fill:#5f6368;fill-opacity:1" />
  <defs
     id="defs14">
    <linearGradient
       id="paint0_linear_1602_26677"
       x1="45"
       y1="1"
       x2="45"
       y2="31"
       gradientUnits="userSpaceOnUse"
       gradientTransform="matrix(1.875,0,0,1.875,56.25,-15.094937)">
      <stop
         offset="0.905762"
         stop-opacity="0.0578"
         id="stop13" />
      <stop
         offset="1"
         stop-opacity="0.1622"
         id="stop14" />
    </linearGradient>
  </defs>
</svg>
