<?xml version="1.0" encoding="UTF-8"?><svg width="187.98" height="200" enable-background="new 0 0 360 383.015" version="1.1" viewBox="0 0 220.73 234.85" xmlns="http://www.w3.org/2000/svg"><path d="m-0.007041 0h220.74v234.85h-220.74z" stroke-width=".61317"/><path d="m6.1038 8.0926h208.24v204.36h-208.24z" fill="#900" stroke-width=".61317"/><path d="m122.18 196.99v-31.409h13.038l0.8891-1.1859-32.594-49.188-26.669 27.441-0.21032 19.762 1.3962 0.80019 18.663 11.279 0.59723 22.5h-86.227l0.44394-25.395 17.039-6.014 0.8891-1.1859v-116.75l-0.59232-1.1853-18.965-7.4077v-27.261h87.116v31.409h-18.667l-0.8891 1.1853v58.966l62.818-57.189v-1.1853l-9.7782-2.9635-9.7782-2.9628v-27.26h90.375v31.409h-11.852l-2.9635 0.8891-60.694 51.828 54.585 71.126 2.0676 2.0676 19.436 6.6161v22.33z" fill="#fff" stroke-width=".61317"/><path d="m5.7506 187.56s3.8918-3.4466 9.2288-5.559c0 0 2.4459-1.6684 4.6699-3.3356 0 0 3.5582-2.224 4.3363-2.5575l1.3343-1.2233s12.009-8.6727 20.571-11.675c0 0 2.335-0.77811 6.0042-0.33356 0 0 1.1117 0.22258 2.8911 0 0 0 4.1144-0.22258 8.6739-1.0013 0 0 5.2261-1.3343 7.3384-1.3343 0 0 1.3343-1.4446 4.6699-0.22197 0 0 4.6699 3.2247 7.45 4.8925 0 0 10.23 3.7802 11.564 4.5589 0 0 2.6691 0 6.8939 1.5568 0 0 3.7808 1.7794 7.0055 2.113 0 0 6.5609-0.22258 9.1179-0.11159l2.2234-0.55615s15.678-7.2268 29.243-7.672c0 0-0.33418-0.55553 1.4452 0 0 0 0.88971-0.66713 1.6684-0.33356l26.13 0.77811s0.22196 0.77934 0.77872 1.0013c0 0 0.44517-0.66713 1.2233-0.1116 0 0 0.66774-6.1e-4 1.5568 0.55554 0 0 1.0007 0.55553 1.6678 0 0 0 1.5568-0.11099 3.3356 1.0013 0 0 0.77934 0.8891 2.0026 1.0007 0 0 0.77873-0.44455 2.4459 0.77873l0.8891-0.66713s6.45 5.7828 9.2294 9.4514c0 0 2.7801 2.7795 5.1151 7.783 0 0 1.3336 1.8898 3.6686 3.8918 0 0 3.3363 2.8917 4.5595 5.5596l0.8891 18.457h-209.71z" stroke-width=".61317"/><g transform="matrix(.61317 0 0 .61317 -.007041 0)" fill="#fff"><path d="m28.483 370.14v-5.305h2.202l0.15-0.2-5.505-8.309-4.405 3.903v4.005l0.1 0.199 3.253 1.103v4.604h-14.564v-5.305h2.953l0.15-0.2v-19.721l-0.101-0.199-3.203-1.251v-4.604h14.714v5.305h-3.153l-0.15 0.201v9.959l10.611-9.659v-0.2l-1.652-0.5-1.652-0.501v-4.604h15.265v5.305h-2.002l-0.5 0.151-10.01 8.257 8.958 11.662 0.301 0.251 3.454 1.051v4.604h-15.214z"/><path d="m60.719 370.94c-11.511 0-15.115-5.606-15.115-15.666 0-13.813 7.057-17.117 16.717-17.117 11.511 0 15.115 5.606 15.115 15.665-1e-3 13.814-7.058 17.118-16.717 17.118zm0.75-27.378c-5.706 0-7.457 3.004-7.457 10.11 0 9.96 1.25 11.812 7.557 11.812 5.705 0 7.457-3.003 7.457-10.11 0-9.909-1.151-11.812-7.557-11.812z"/><path d="m115.88 344.16h-2.953l-0.15 0.201v26.226h-9.709l-12.062-24.125h-0.751v17.618l0.1 0.2 4.154 1.252v4.604h-13.563v-5.305h2.953l0.15-0.2v-19.721l-0.1-0.199-3.203-1.251v-4.604h13.714l11.311 23.021h0.751v-16.967l-0.101-0.199-4.153-1.251v-4.604h13.613v5.304z"/><path d="m149.86 359.18h-3.203l-0.15 0.201v3.753l3.053 0.951v4.153c-4.554 1.502-9.459 2.704-15.415 2.704-11.561 0-15.365-5.456-15.365-15.666 0-13.664 6.857-17.117 16.417-17.117 3.153 0 4.504 0.451 6.106 0.951l5.456-1.451v11.762h-5.406l-1.451-4.705c-1.752-0.75-3.153-1.151-5.556-1.151-5.105 0-7.157 3.253-7.157 10.11 0 9.809 1.451 11.762 7.807 11.762 1.652 0 3.053-0.25 4.154-0.65v-5.104l-0.1-0.201-4.255-1.001v-4.605h15.065z"/><path d="m174.79 370.14-2.752-5.405-3.704-7.007-3.403 0.501v6.006l0.101 0.199 2.652 1.002v4.704h-13.965v-5.305h2.954l0.15-0.2v-19.721l-0.1-0.199-3.203-1.251v-4.604h14.965c10.46 0 13.863 2.002 13.863 8.858 0 5.055-2.553 7.858-6.656 9.309l5.205 7.208 0.3 0.251 3.004 1.051v4.604h-9.411zm-7.507-25.976h-2.353v9.31l3.003 0.399c3.703-0.8 5.556-1.9 5.556-5.254 0-3.454-1.152-4.455-6.206-4.455z"/><path d="m215.28 370.14h-29.279v-5.305h2.953l0.15-0.2v-19.721l-0.101-0.199-3.203-1.251v-4.604h29.88v11.661h-5.806l-0.651-3.553c-0.55-2.553-1.15-2.804-10.56-2.804h-1.452v8.259h2.103c1.702 0 2.052-0.201 2.453-1.502l0.55-2.151h4.604l-1.201 11.311h-3.854l-0.551-2.252c-0.4-1.102-0.751-1.301-2.002-1.301h-2.103v8.308h1.452c9.108 0 9.51-0.2 10.41-3.054l1.051-3.253h6.106z"/><path d="m250.52 359.18h-3.203l-0.15 0.201v3.753l3.054 0.951v4.153c-4.556 1.502-9.46 2.704-15.415 2.704-11.562 0-15.366-5.456-15.366-15.666 0-13.664 6.857-17.117 16.417-17.117 3.153 0 4.504 0.451 6.105 0.951l5.455-1.451v11.762h-5.405l-1.452-4.705c-1.751-0.75-3.151-1.151-5.555-1.151-5.105 0-7.156 3.253-7.156 10.11 0 9.809 1.45 11.762 7.807 11.762 1.651 0 3.054-0.25 4.154-0.65v-5.104l-0.1-0.201-4.254-1.001v-4.605h15.064z"/><path d="m270.64 370.14v-5.305h2.453l0.149-0.2-0.8-4.154h-10.012l-0.8 3.754 0.1 0.199 3.054 1.103v4.604h-12.763v-5.305h2.953l0.25-0.2 7.357-22.924v-1.951l11.061-1.651 8.308 26.126 0.151 0.251 3.402 1.051v4.604h-14.863zm-2.803-26.026h-0.751l-3.054 11.661h6.707z"/><path d="m310.68 351.17-0.901-4.755c-0.351-1.651-0.551-2.352-3.554-2.352h-1.701v20.17l0.1 0.199 4.505 1.103v4.604h-17.066v-5.305h4.204l0.149-0.2v-20.57h-1.451c-2.652 0-2.952 0.65-3.303 1.952l-1.603 5.154h-6.106l0.951-12.312h31.582v12.312z"/><path d="m349.02 370.14h-29.279v-5.305h2.952l0.151-0.2v-19.721l-0.1-0.199-3.203-1.251v-4.604h29.879v11.661h-5.806l-0.65-3.553c-0.551-2.553-1.152-2.804-10.561-2.804h-1.452v8.259h2.103c1.701 0 2.052-0.201 2.451-1.502l0.552-2.151h4.604l-1.2 11.311h-3.854l-0.551-2.252c-0.4-1.102-0.751-1.301-2.002-1.301h-2.103v8.308h1.452c9.108 0 9.509-0.2 10.409-3.054l1.051-3.253h6.107z"/></g><path d="m9.6424 185.42s1.6691-3.0904 2.2252-5.9343c0 0 0.68001-2.4723 0.68001-3.8949l-0.06193-5.3168s0.18518-1.2368 0.98905-1.8542c0 0 0.68001-0.18579 1.6077 0 0 0-1.4839-2.411-0.06193-5.7491 0 0 0.98904-2.4723 2.4729-4.2033 0 0-1.051-0.86518-1.6071-1.7929 0 0-0.86518 4.0181-3.1529 4.6981 0 0-0.55676 0.30904-0.92773-0.74194 0 0 0.55676-0.67939 0.92773-1.36 0 0 0.43229-0.98905 0.49422-2.5348 0 0 0-1.7298-0.30904-2.5342 0 0 0.30904-2.2252 2.72-1.5458 0 0 0.74132 0.37035 1.36 1.1123 0 0 1.731-0.92773 2.72-2.782 0 0 0.92773-2.9052 2.411-1.051 0 0 2.3491 1.8548 4.6981 4.822 0 0 5.131 0.55676 8.0982 7.542 0 0 1.4219 1.1117 4.3891-3.2149 0 0 1.6691-0.86518 3.2762-0.12324 0 0 0.74194 0.37097 2.2252 3.5858l0.68001 1.5452s-20.957 11.375-21.451 12.364c0 0-3.771 2.5956-4.08 2.9671z" stroke-width=".61317"/><path d="m18.606 155.25 1.2362 1.051 3.462-1.1123s-0.8658-1.8536-1.5458-2.2252z" fill="#991d20" stroke-width=".61317"/><path d="m22.192 175.15s0.37097 1.0504 1.7929 1.2362l1.36-0.86518-0.55615-0.37036h-2.5968z" fill="#fff" stroke-width=".61317"/><path d="m15.948 174.47s0.18579 1.3606 1.7929 2.2258c0 0 1.1129 0.67878 2.04 2.2865 0 0-4.451 2.5962-4.9452 3.5858 0 0-0.61869-0.68 0.86518-4.3891-6.13e-4 0-0.06254-2.1639 0.24711-3.7091z" fill="#fff" stroke-width=".61317"/><path d="m40.861 162.17s-0.55676 0.30966-0.68001 0.74194h0.98904z" fill="#fff" stroke-width=".61317"/><path d="m44.225 164.64s6.3856-4.9127 11.157-25.613c0 0-1.4035-1.7543 0.9124-3.3682 0 0 0.8425-0.70147 3.2283-1.2631 0 0 4.0702-0.35074 5.4732 0.0699 0 0 2.0345 0.0699 4.3505 1.1926 0 0 8.4912 3.0879 10.526 3.649 0 0 1.1227 0.49115 1.6844-1.0528 0 0-0.21093-1.0522 0.91179-2.7366 0 0-32.407-7.141-19.734-36.982 0 0 0-2.2485-1.3287-4.2922 0 0-9.7083-17.373-0.91976-27.49 0 0 5.4161-7.0515 11.65-6.4383 0 0 1.8395 0.20419 0.40899 1.4305 0 0-4.3946 3.4742-4.803 11.241 0 0 0.30658 3.1683 3.1683 3.9856 0 0 1.6353 1.4305 0.1024 2.3503l-1.0222 1.0222-1.2263 3.1683s0.71557 2.8617 4.088 3.7814c0 0 6.1317-6.1317 19.315-4.3946 0 0 0.61317 0.1024 1.8395-1.4305 0 0 1.2263-1.6353-0.20419-3.8832 0 0-1.1239-1.5329-2.9635-2.4527 0 0-1.2263-0.51077 0.20419-1.6353l1.8395-3.1683s0.81736-2.1461-0.51077-3.679c0 0-1.3281-4.088-6.9491-8.0736 0 0-2.8617-0.71557 0.71557-1.9419 0 0 4.9054-1.0222 10.322 1.6353 0 0 5.6209 3.5766 7.767 11.344 0 0 1.9419 7.6646-0.61317 16.045 0 0 24.015 11.65 9.1976 37.506 0 0 2.6569 1.124 3.8832 3.1683 0 0 4.9054-3.27 9.5042-3.9856 0 0 3.3724-0.81736 4.3946 1.0222 0 0 0.92037-0.2048 2.8617 5.7227 0 0 16.045 0.51077 23.301 14.41 0 0 0.91976 1.1239 0.91976 3.9856 0 0 0.20357 1.3294 2.2479 2.6575 0 0 1.6347 2.0437 4.5988 2.0437s-13.592 12.161-13.592 12.161-1.2263-0.10179-1.9419 1.1246c0 0-30.25 19.621-50.076-3.8838 0 0-2.6569 5.7234-4.5988 8.3802l-6.2341-0.71557s1.7371 0.61317 6.3359-11.344c0 0-2.8617-0.71557-3.679-2.1461 0 0-9.9131 2.5557-22.687 2.6575 0 0-2.2485-6.1e-4 -2.7593 1.3281 0 0-2.2485 2.1461-2.3503 3.4748l-10.424 0.81736s3.1683-0.51139 6.4383-4.5988c0 0-0.91976-1.6347 0.91976-2.9634 0 0 1.2263-3.4748 10.015-4.7012 0 0 11.446-0.81735 14.92-0.81735 0 0-1.9419-2.0443-2.4527-4.7012 0 0-17.884-4.394-20.541-5.9269l-1.4305-0.2048s0 2.6575-0.61317 4.497c0 0-3.0659 10.015-3.7814 11.241 0 0-2.8617 6.2341-5.3144 8.5844z" stroke-width=".61317"/><path d="m126.81 127.55-1.2202 0.93815 0.5635 0.65671 1.7825 0.37526z" fill="#fff" stroke-width=".61317"/><path d="m156.56 152.61s0 0.28144-0.75114 0.93815c0 0 0.75052-0.0932 1.501 0.18824 6.2e-4 0-0.0926 0.28084-0.7499-1.1264z" fill="#fff" stroke-width=".61317"/><path d="m163.09 152.28s0.51445-0.12938 1.6727-1.1583c0 0-2.4435-8.1043 6.304-10.935 0 0 0.77137-2.5723 1.929-5.1464 0 0 0.90137-1.4158 2.0584-2.5735 0 0 0.51506-1.0289 1.6727 0.77198 0 0 2.7672 2.9543 4.99 4.3339 0 0 0.38323-1.303 1.1497-2.2994 0 0 0.53652-0.61318 1.303-0.1533 0 0 1.2264 0.1533 1.303 1.4563 0 0 1.5017 4.3603 2.9126 6.7449 0.35073 0.59294 0.42615 0.51445 1.303 1.7629 0 0-0.45988 0.45988-1.1497 0.61317 0 0 0.0767-0.0767-0.9964-0.76647 0 0-0.53653 0.0767-1.073-1.073 0 0-2.1461-2.9126-2.5293-4.1389 0 0-1.303 1.8395-1.6862 3.2192 0 0 7.3581 5.8251 6.1317 13.873 0 0 0 0.68982 2.376-0.22994 0 0 1.9162-0.53652 1.4563 2.0694 0 0 1.2263 6.285 3.9856 11.727 0 0 1.6096 4.0623 5.6718 7.2048l-0.45988 1.073-10.424-8.3545 1.1497-0.91976s-1.5329-2.6826-2.2994-4.8287c0 0-0.84311-0.99641-1.303-0.15329 0 0-1.6862 2.8359-1.7629 3.6024 0 0-0.38323 0.30658 0.53653 0.84311 0 0 0.68982-0.1533 1.2263 0.45988l2.1461 0.53652 0.61317 1.3796-39.779-5.6718-0.61317-1.3796z" stroke-width=".61317"/><path d="m175.89 135.5s-0.38323-0.0767-0.68982 0.61317c0 0-1.1497 2.1461-1.2263 4.1389 0 0 3.2192-0.30659 5.8251 1.1497l0.9964-2.1461s-4.2922-2.7593-4.9054-3.7557z" fill="#991d20" stroke-width=".61317"/><path d="m184.24 164.4s-1.7629 1.1497-2.9892 1.1497c0 0-0.9964-0.9964-2.9892 0.1533 0 0-0.15329 0.76646 0.84311 0.9964 0 0 1.073-0.22994 1.9162 0.30659 0 0 0.91976 0.53652 1.9162 0.45988 0 0 0.68982 0 0.99641-1.5329 0 0 0.38323-0.61317 0.30658-1.5329z" fill="#fff" stroke-width=".61317"/></svg>
