<?xml version="1.0" encoding="UTF-8"?> <svg xmlns="http://www.w3.org/2000/svg" width="200" height="200" viewBox="0 0 836 170"> <path fill="#1A1A1A" d="M341.1,42.1 C350.8,45.5 358.6,52.9 362.4,62.5 C364.5,67.7 365.5,73.4 365.4,79 L365.4,134.6 L340.8,134.6 L340.8,83.4 C340.8,76.5 339.1,71.2 335.8,67.5 C332.5,63.8 327.4,61.9 320.5,61.9 C314.5,61.8 308.8,64.3 304.9,68.9 C300.7,73.6 298.7,79.8 298.7,87.6 L298.7,134.5 L274,134.5 L274,83.4 C274,76.5 272.3,71.2 269,67.5 C265.7,63.8 260.6,61.9 253.7,61.9 C247.7,61.8 242,64.3 238.1,68.9 C233.9,73.6 231.9,79.8 231.9,87.6 L231.9,134.5 L207.3,134.5 L207.3,41.9 L231.9,41.9 L231.9,48.9 C235.1,45.9 238.8,43.7 242.8,42.2 C247.8,40.3 253.1,39.3 258.4,39.4 C265.1,39.3 271.7,40.4 277.9,42.7 C283.4,44.9 288.2,48.6 291.6,53.4 C295.2,49.1 299.6,45.7 304.7,43.4 C310.3,40.7 317,39.3 324.8,39.3 C330.3,39.3 335.9,40.3 341.1,42.1 Z M447.5,43.1 C453.5,45.4 458.9,48.9 463.5,53.3 C468,57.7 471.6,63 474,68.8 C476.6,75 477.9,81.6 477.8,88.3 C477.9,95 476.6,101.6 474,107.7 C471.5,113.5 468,118.7 463.5,123.1 C458.9,127.5 453.5,131 447.5,133.3 C434.6,138.2 420.4,138.2 407.5,133.3 C401.5,131 396.1,127.5 391.5,123.1 C387,118.7 383.4,113.5 381,107.7 C378.4,101.6 377.1,94.9 377.2,88.3 C377.1,81.6 378.4,75 381,68.8 C383.4,63 387,57.7 391.5,53.3 C396.1,48.9 401.5,45.4 407.5,43.1 C420.3,38.2 434.6,38.2 447.5,43.1 Z M417.3,64 C414.3,65.3 411.5,67.1 409.1,69.4 C406.7,71.8 404.9,74.6 403.6,77.7 C402.3,81.1 401.6,84.8 401.6,88.4 C401.6,92 402.2,95.6 403.6,99 C404.8,102.1 406.7,104.9 409.1,107.2 C419.4,117.1 435.6,117.1 445.8,107.2 C448.2,104.9 450,102.1 451.3,99 C452.6,95.6 453.3,92 453.3,88.4 C453.3,84.7 452.7,81.1 451.3,77.7 C450.1,74.6 448.2,71.8 445.8,69.4 C438.2,62.1 427,60.1 417.3,64 Z M518.5,134.7 L475.7,42 L502.8,42 L530.5,101.7 L558.2,41.9 L584.4,41.9 L541.6,134.6 L518.5,134.7 Z M586.5,70.1 C588.6,64.4 591.7,59.1 595.8,54.5 C600,49.9 605.1,46.1 610.7,43.6 C617,40.8 623.8,39.4 630.7,39.5 C635.8,39.5 641,40.3 645.8,42 C650.3,43.5 654.4,45.9 657.8,49.2 L657.8,42 L682.4,42 L682.4,134.7 L657.8,134.7 L657.8,127.7 C654.4,131 650.3,133.4 645.8,134.8 C634.3,138.6 621.8,138 610.7,133.1 C605,130.5 599.9,126.9 595.8,122.3 C591.7,117.8 588.6,112.5 586.5,106.8 C582.2,94.9 582.2,81.9 586.5,70.1 Z M609.7,98.4 C610.9,101.5 612.6,104.3 614.8,106.8 C617,109.2 619.6,111.2 622.6,112.5 C625.8,113.9 629.2,114.6 632.6,114.6 C635.9,114.6 639.1,114 642.2,112.9 C645.3,111.8 648.1,110.2 650.6,108 C653.2,105.8 655.2,103 656.6,99.9 C658.2,96.3 658.9,92.3 658.8,88.4 C658.9,84.4 658.1,80.5 656.6,76.9 C655.2,73.8 653.1,71 650.6,68.7 C648.2,66.5 645.3,64.8 642.2,63.7 C639.1,62.6 635.9,62 632.7,62 C629.2,62 625.8,62.7 622.7,64.2 C619.7,65.6 617,67.6 614.8,70 C608,77.8 606,88.8 609.7,98.4 Z M734.1,134.7 L691.3,42 L718.4,42 L746.1,101.7 L773.8,41.9 L800,41.9 L757.2,134.6 L734.1,134.7 Z M835.5,0.1 L835.5,26.9 L808.6,26.9 L808.6,0.1 L835.5,0.1 Z M834.3,134.7 L809.7,134.7 L809.7,41.9 L834.3,41.9 L834.3,134.7 Z M80.2,69 C64.0732853,69 51,55.9267147 51,39.8 C51,23.6732853 64.0732853,10.6 80.2,10.6 C96.3267147,10.6 109.4,23.6732853 109.4,39.8 C109.4,55.9267147 96.3267147,69 80.2,69 Z M80.2,169.8 C64.0732853,169.8 51,156.726715 51,140.6 C51,124.473285 64.0732853,111.4 80.2,111.4 C96.3267147,111.4 109.4,124.473285 109.4,140.6 C109.4,156.726715 96.3267147,169.8 80.2,169.8 Z M130.6,119.4 C114.473285,119.4 101.4,106.326715 101.4,90.2 C101.4,74.0732853 114.473285,61 130.6,61 C146.726715,61 159.8,74.0732853 159.8,90.2 C159.8,106.326715 146.726715,119.4 130.6,119.4 Z M29.8,119.4 C13.6732853,119.4 0.6,106.326715 0.6,90.2 C0.6,74.0732853 13.6732853,61 29.8,61 C45.9267147,61 59,74.0732853 59,90.2 C59,106.326715 45.9267147,119.4 29.8,119.4 Z"></path> </svg> 